<?xml version="1.0" standalone="no"?>
<!DOCTYPE svg PUBLIC "-//W3C//DTD SVG 20010904//EN"
 "http://www.w3.org/TR/2001/REC-SVG-20010904/DTD/svg10.dtd">
<svg version="1.0" xmlns="http://www.w3.org/2000/svg"
 width="2048.000000pt" height="2048.000000pt" viewBox="0 0 2048.000000 2048.000000"
 preserveAspectRatio="xMidYMid meet">
<metadata>
Created by potrace 1.14, written by Peter Selinger 2001-2017
</metadata>
<g transform="translate(0.000000,2048.000000) scale(0.100000,-0.100000)"
fill="#000000" stroke="none">
<path d="M0 10240 l0 -10240 10240 0 10240 0 0 10240 0 10240 -10240 0 -10240
0 0 -10240z m2797 -1621 c1 -1207 2 -2205 3 -2219 l1 -25 22 26 c12 15 29 35
37 45 57 70 305 370 310 374 3 3 21 25 40 50 19 25 37 47 40 50 4 3 91 109
195 235 104 127 203 246 219 266 42 48 64 75 111 134 21 28 44 55 49 60 6 6
38 43 71 84 51 64 305 372 533 647 37 44 83 100 102 124 19 24 42 51 50 60 8
9 33 38 54 65 22 28 46 57 53 65 7 8 41 49 74 90 34 41 73 89 88 105 14 17 42
50 61 75 19 25 37 47 40 50 4 3 52 61 109 130 141 171 174 212 186 224 6 6 37
45 69 86 33 41 63 77 66 80 3 3 24 28 45 55 22 28 45 55 51 60 5 6 37 44 70
85 32 41 64 80 70 85 6 6 38 44 71 85 122 150 714 868 754 913 l25 29 1100 0
c604 0 1103 -1 1107 -1 9 -1 -7 -24 -79 -107 -74 -85 -76 -88 -119 -140 -46
-55 -227 -269 -254 -299 -9 -11 -133 -157 -275 -325 -142 -168 -267 -316 -280
-330 -12 -14 -69 -81 -126 -149 -157 -185 -239 -283 -263 -311 -12 -14 -51
-59 -86 -100 -35 -41 -73 -86 -85 -100 -12 -14 -95 -113 -186 -220 -90 -107
-167 -197 -170 -200 -3 -3 -27 -32 -55 -65 -27 -33 -60 -71 -71 -85 -12 -14
-41 -47 -64 -75 -23 -27 -52 -61 -64 -75 -12 -14 -109 -128 -216 -255 -107
-126 -197 -232 -200 -235 -3 -3 -28 -32 -55 -65 -28 -33 -52 -62 -55 -65 -3
-3 -28 -32 -55 -65 -28 -33 -52 -62 -55 -65 -3 -3 -105 -122 -225 -265 -121
-143 -230 -271 -241 -285 -12 -14 -77 -90 -144 -170 -67 -80 -134 -158 -149
-175 -14 -16 -62 -73 -106 -125 -95 -113 -109 -129 -166 -196 -24 -28 -60 -70
-81 -95 -20 -24 -48 -57 -62 -74 -27 -31 -31 -41 -18 -47 4 -1 34 -34 67 -73
33 -38 62 -72 65 -75 3 -3 34 -39 70 -80 36 -41 67 -77 70 -80 3 -3 34 -39 70
-80 36 -41 67 -77 70 -80 3 -3 36 -41 75 -85 38 -44 72 -82 75 -85 3 -3 32
-36 65 -75 33 -38 62 -72 65 -75 3 -3 39 -43 80 -90 41 -47 77 -87 80 -90 3
-3 48 -54 100 -115 92 -107 149 -172 180 -205 8 -8 28 -31 44 -50 15 -19 45
-53 65 -75 20 -22 63 -71 96 -110 56 -64 90 -103 140 -159 11 -12 49 -55 85
-96 36 -41 69 -80 75 -86 5 -6 35 -39 65 -74 30 -35 60 -68 65 -74 6 -6 39
-45 75 -86 36 -41 67 -77 70 -80 3 -3 54 -61 114 -130 60 -69 135 -154 166
-190 66 -75 111 -126 137 -156 40 -46 141 -161 188 -214 28 -31 75 -85 105
-120 30 -34 59 -68 65 -74 5 -6 37 -42 70 -81 33 -38 62 -72 65 -75 12 -12 99
-110 151 -170 120 -137 373 -427 408 -465 20 -22 63 -71 96 -110 33 -38 65
-75 70 -81 6 -6 33 -37 60 -69 28 -32 57 -65 66 -74 8 -9 64 -72 124 -141 61
-69 114 -130 120 -136 5 -6 19 -22 30 -35 63 -73 245 -280 277 -314 21 -22 38
-43 38 -47 0 -10 92 -9 -1195 -10 l-1099 0 -19 24 c-11 12 -45 52 -77 88 -32
36 -142 162 -245 280 -221 253 -296 339 -310 354 -6 6 -87 99 -180 206 -93
107 -172 197 -175 200 -3 3 -129 147 -280 320 -151 173 -291 333 -311 355 -20
22 -89 101 -154 175 -64 74 -129 149 -144 165 -14 17 -55 64 -91 105 -36 41
-79 91 -96 110 -18 19 -244 278 -504 575 -259 297 -484 554 -498 570 -15 17
-72 82 -127 145 -55 63 -102 117 -105 120 -3 3 -98 111 -210 240 -113 129
-220 252 -239 272 -19 21 -40 47 -48 58 -8 11 -17 20 -21 20 -4 0 -6 -985 -6
-2190 l1 -2190 -71 0 c-530 -3 -1739 0 -1743 4 -11 11 -6 9618 5 9625 5 3 414
5 909 5 l898 -2 2 -2193z m10088 -23 c386 -22 815 -118 1135 -252 90 -38 302
-145 356 -179 30 -19 57 -35 59 -35 3 0 49 -30 103 -66 542 -369 932 -878
1189 -1554 36 -94 101 -296 119 -369 2 -9 10 -43 19 -76 15 -62 50 -227 59
-280 13 -74 19 -119 31 -207 6 -39 22 -191 30 -268 7 -67 17 -441 15 -530 -3
-139 -9 -279 -16 -365 -3 -49 -7 -99 -8 -110 -1 -20 -9 -20 -2521 -22 -1386
-1 -2528 -2 -2538 -2 -15 -1 -17 -7 -12 -38 14 -82 47 -250 55 -278 93 -317
146 -439 279 -640 86 -130 254 -300 379 -383 105 -69 218 -126 342 -170 66
-24 265 -69 335 -76 28 -3 77 -8 110 -12 189 -19 458 -2 645 42 36 9 72 17 80
19 8 2 56 18 105 35 355 127 642 381 822 731 38 74 39 75 68 67 17 -5 53 -15
80 -23 28 -7 154 -43 280 -80 231 -67 1179 -339 1310 -376 39 -11 80 -23 93
-26 12 -3 22 -9 22 -14 0 -13 -82 -192 -128 -281 -302 -576 -723 -1010 -1299
-1337 -250 -141 -647 -303 -847 -346 -11 -2 -59 -14 -106 -25 -73 -18 -122
-28 -290 -55 -204 -33 -613 -48 -830 -31 -127 11 -193 17 -232 21 -21 3 -57 7
-80 10 -45 6 -112 15 -138 20 -8 2 -55 10 -105 19 -433 80 -865 247 -1240 479
-68 42 -249 166 -288 197 -253 202 -450 399 -641 640 -6 8 -38 53 -71 100
-271 384 -451 783 -560 1235 -22 91 -54 250 -60 300 -2 11 -8 54 -14 95 -41
286 -49 819 -17 1095 2 17 6 59 10 95 3 36 8 74 10 85 2 11 7 49 11 85 4 36 9
68 11 71 2 3 6 24 9 47 18 148 138 606 185 707 5 11 23 58 41 105 40 109 151
339 217 454 29 49 52 90 52 92 0 1 32 51 72 111 97 147 180 256 308 407 50 59
269 272 335 326 36 30 72 60 78 65 64 56 359 259 395 272 9 3 24 12 32 19 16
13 267 140 335 169 22 9 49 21 60 26 108 49 455 158 554 174 19 3 37 8 41 10
7 4 17 6 130 26 148 27 327 47 475 55 66 4 121 7 122 8 5 4 341 -2 438 -8z
m6441 -6509 l0 -907 -25 0 c-14 0 -424 -1 -911 -1 l-884 0 -1 893 c0 491 1
900 3 909 3 15 80 17 910 15 l907 -1 1 -908z"/>
<path d="M12517 7024 c-1 -1 -37 -5 -79 -8 -42 -4 -85 -8 -95 -10 -10 -2 -40
-7 -68 -10 -86 -12 -246 -53 -345 -89 -507 -184 -827 -593 -974 -1248 l-5 -25
1589 0 1590 0 0 21 c0 11 -9 70 -21 130 -107 570 -313 902 -676 1085 -145 73
-355 130 -538 146 -68 6 -373 12 -378 8z"/>
</g>
</svg>
